G04 #@! TF.GenerationSoftware,KiCad,Pcbnew,(6.0.0)*
G04 #@! TF.CreationDate,2023-03-26T21:44:28-04:00*
G04 #@! TF.ProjectId,stroboscope_usb_c_0v1,7374726f-626f-4736-936f-70655f757362,rev?*
G04 #@! TF.SameCoordinates,Original*
G04 #@! TF.FileFunction,Legend,Bot*
G04 #@! TF.FilePolarity,Positive*
%FSLAX46Y46*%
G04 Gerber Fmt 4.6, Leading zero omitted, Abs format (unit mm)*
G04 Created by KiCad (PCBNEW (6.0.0)) date 2023-03-26 21:44:28*
%MOMM*%
%LPD*%
G01*
G04 APERTURE LIST*
%ADD10C,0.300000*%
%ADD11C,0.150000*%
%ADD12C,0.120000*%
G04 APERTURE END LIST*
D10*
X126724457Y-99271828D02*
X126867314Y-99200400D01*
X127010171Y-99057542D01*
X127224457Y-98843257D01*
X127367314Y-98771828D01*
X127510171Y-98771828D01*
X127438742Y-99128971D02*
X127581600Y-99057542D01*
X127724457Y-98914685D01*
X127795885Y-98628971D01*
X127795885Y-98128971D01*
X127724457Y-97843257D01*
X127581600Y-97700400D01*
X127438742Y-97628971D01*
X127153028Y-97628971D01*
X127010171Y-97700400D01*
X126867314Y-97843257D01*
X126795885Y-98128971D01*
X126795885Y-98628971D01*
X126867314Y-98914685D01*
X127010171Y-99057542D01*
X127153028Y-99128971D01*
X127438742Y-99128971D01*
X126153028Y-99128971D02*
X126153028Y-97628971D01*
X125653028Y-98700400D01*
X125153028Y-97628971D01*
X125153028Y-99128971D01*
X123724457Y-99128971D02*
X124438742Y-99128971D01*
X124438742Y-97628971D01*
D11*
X131370180Y-92823466D02*
X132084466Y-92823466D01*
X132227323Y-92775847D01*
X132322561Y-92680609D01*
X132370180Y-92537752D01*
X132370180Y-92442514D01*
X131465419Y-93252038D02*
X131417800Y-93299657D01*
X131370180Y-93394895D01*
X131370180Y-93632990D01*
X131417800Y-93728228D01*
X131465419Y-93775847D01*
X131560657Y-93823466D01*
X131655895Y-93823466D01*
X131798752Y-93775847D01*
X132370180Y-93204419D01*
X132370180Y-93823466D01*
D12*
X130777800Y-88696800D02*
X130777800Y-96316800D01*
X125567800Y-89456800D02*
X125567800Y-92506800D01*
X130767800Y-94506800D02*
X130767800Y-96306800D01*
X130017800Y-88706800D02*
X130767800Y-88706800D01*
X130017800Y-90506800D02*
X130017800Y-88706800D01*
X130767800Y-88706800D02*
X130767800Y-90506800D01*
X124807800Y-88696800D02*
X130777800Y-88696800D01*
X128517800Y-95556800D02*
X125567800Y-95556800D01*
X128517800Y-88706800D02*
X128517800Y-89456800D01*
X130017800Y-92006800D02*
X130767800Y-92006800D01*
X130017800Y-96306800D02*
X130017800Y-94506800D01*
X130017800Y-93006800D02*
X130017800Y-92006800D01*
X130767800Y-90506800D02*
X130017800Y-90506800D01*
X128517800Y-89456800D02*
X125567800Y-89456800D01*
X130767800Y-92006800D02*
X130767800Y-93006800D01*
X131067800Y-96606800D02*
X129817800Y-96606800D01*
X125567800Y-95556800D02*
X125567800Y-92506800D01*
X130767800Y-96306800D02*
X130017800Y-96306800D01*
X124807800Y-96316800D02*
X124807800Y-88696800D01*
X130017800Y-94506800D02*
X130767800Y-94506800D01*
X130777800Y-96316800D02*
X124807800Y-96316800D01*
X128517800Y-96306800D02*
X128517800Y-95556800D01*
X130767800Y-93006800D02*
X130017800Y-93006800D01*
X131067800Y-95356800D02*
X131067800Y-96606800D01*
M02*
