G04 #@! TF.GenerationSoftware,KiCad,Pcbnew,(6.0.0)*
G04 #@! TF.CreationDate,2023-03-26T21:44:28-04:00*
G04 #@! TF.ProjectId,stroboscope_usb_c_0v1,7374726f-626f-4736-936f-70655f757362,rev?*
G04 #@! TF.SameCoordinates,Original*
G04 #@! TF.FileFunction,Copper,L1,Top*
G04 #@! TF.FilePolarity,Positive*
%FSLAX46Y46*%
G04 Gerber Fmt 4.6, Leading zero omitted, Abs format (unit mm)*
G04 Created by KiCad (PCBNEW (6.0.0)) date 2023-03-26 21:44:28*
%MOMM*%
%LPD*%
G01*
G04 APERTURE LIST*
G04 Aperture macros list*
%AMRoundRect*
0 Rectangle with rounded corners*
0 $1 Rounding radius*
0 $2 $3 $4 $5 $6 $7 $8 $9 X,Y pos of 4 corners*
0 Add a 4 corners polygon primitive as box body*
4,1,4,$2,$3,$4,$5,$6,$7,$8,$9,$2,$3,0*
0 Add four circle primitives for the rounded corners*
1,1,$1+$1,$2,$3*
1,1,$1+$1,$4,$5*
1,1,$1+$1,$6,$7*
1,1,$1+$1,$8,$9*
0 Add four rect primitives between the rounded corners*
20,1,$1+$1,$2,$3,$4,$5,0*
20,1,$1+$1,$4,$5,$6,$7,0*
20,1,$1+$1,$6,$7,$8,$9,0*
20,1,$1+$1,$8,$9,$2,$3,0*%
G04 Aperture macros list end*
G04 #@! TA.AperFunction,SMDPad,CuDef*
%ADD10RoundRect,0.250000X0.450000X-0.350000X0.450000X0.350000X-0.450000X0.350000X-0.450000X-0.350000X0*%
G04 #@! TD*
G04 #@! TA.AperFunction,SMDPad,CuDef*
%ADD11R,1.200000X0.700000*%
G04 #@! TD*
G04 #@! TA.AperFunction,SMDPad,CuDef*
%ADD12R,1.200000X0.760000*%
G04 #@! TD*
G04 #@! TA.AperFunction,SMDPad,CuDef*
%ADD13R,1.200000X0.800000*%
G04 #@! TD*
G04 #@! TA.AperFunction,ComponentPad*
%ADD14O,2.200000X1.100000*%
G04 #@! TD*
G04 #@! TA.AperFunction,ComponentPad*
%ADD15RoundRect,0.250000X0.750000X-0.600000X0.750000X0.600000X-0.750000X0.600000X-0.750000X-0.600000X0*%
G04 #@! TD*
G04 #@! TA.AperFunction,ComponentPad*
%ADD16O,2.000000X1.700000*%
G04 #@! TD*
G04 #@! TA.AperFunction,Conductor*
%ADD17C,0.250000*%
G04 #@! TD*
G04 #@! TA.AperFunction,Conductor*
%ADD18C,1.000000*%
G04 #@! TD*
G04 APERTURE END LIST*
D10*
X124764800Y-98332800D03*
X124764800Y-96332800D03*
X127254000Y-98332800D03*
X127254000Y-96332800D03*
D11*
X121680000Y-93100000D03*
D12*
X121680000Y-95120000D03*
D13*
X121680000Y-96350000D03*
D11*
X121680000Y-94100000D03*
D12*
X121680000Y-92080000D03*
D13*
X121680000Y-90850000D03*
D14*
X117800000Y-89280000D03*
X117800000Y-97920000D03*
X121600000Y-89280000D03*
X121600000Y-97920000D03*
D15*
X128317800Y-93756800D03*
D16*
X128317800Y-91256800D03*
D17*
X126329480Y-99257320D02*
X127254000Y-98332800D01*
X119540080Y-94389920D02*
X119540080Y-98559680D01*
X121680000Y-93100000D02*
X120830000Y-93100000D01*
X119540080Y-98559680D02*
X120237720Y-99257320D01*
X120237720Y-99257320D02*
X126329480Y-99257320D01*
X120830000Y-93100000D02*
X119540080Y-94389920D01*
D18*
X122979511Y-95149511D02*
X121680000Y-95149511D01*
X128317800Y-93756800D02*
X128317800Y-93598152D01*
X128317800Y-93598152D02*
X127683648Y-92964000D01*
X124372222Y-93756800D02*
X122979511Y-95149511D01*
X127683648Y-92964000D02*
X124510800Y-92964000D01*
X123597289Y-92050489D02*
X121680000Y-92050489D01*
X128317800Y-93756800D02*
X124372222Y-93756800D01*
X124510800Y-92964000D02*
X123597289Y-92050489D01*
D17*
X120435320Y-98794520D02*
X124303080Y-98794520D01*
X124303080Y-98794520D02*
X124764800Y-98332800D01*
X121680000Y-94100000D02*
X120830000Y-94100000D01*
X119989600Y-94940400D02*
X119989600Y-98348800D01*
X119989600Y-98348800D02*
X120435320Y-98794520D01*
X120830000Y-94100000D02*
X119989600Y-94940400D01*
G04 #@! TA.AperFunction,Conductor*
G36*
X132188121Y-87497602D02*
G01*
X132234614Y-87551258D01*
X132246000Y-87603600D01*
X132246000Y-99851225D01*
X132225998Y-99919346D01*
X132172342Y-99965839D01*
X132120762Y-99977223D01*
X119515506Y-100053388D01*
X116260761Y-100073054D01*
X116192521Y-100053464D01*
X116145705Y-100000090D01*
X116134000Y-99947056D01*
X116134000Y-98423237D01*
X116621358Y-98423237D01*
X116624783Y-98430738D01*
X116733701Y-98541961D01*
X116744560Y-98550818D01*
X116884324Y-98640889D01*
X116896877Y-98647121D01*
X117053127Y-98703991D01*
X117066742Y-98707284D01*
X117195130Y-98723503D01*
X117203020Y-98724000D01*
X117281885Y-98724000D01*
X117297124Y-98719525D01*
X117298329Y-98718135D01*
X117300000Y-98710452D01*
X117300000Y-98705885D01*
X118300000Y-98705885D01*
X118304475Y-98721124D01*
X118305865Y-98722329D01*
X118313548Y-98724000D01*
X118391828Y-98724000D01*
X118398852Y-98723607D01*
X118522253Y-98709766D01*
X118535906Y-98706664D01*
X118692938Y-98651979D01*
X118705571Y-98645926D01*
X118846589Y-98557809D01*
X118857562Y-98549112D01*
X118941926Y-98465335D01*
X119004357Y-98431528D01*
X119075155Y-98436840D01*
X119131841Y-98479585D01*
X119154754Y-98541675D01*
X119155760Y-98541556D01*
X119157684Y-98557809D01*
X119159707Y-98574903D01*
X119160057Y-98580834D01*
X119160152Y-98580826D01*
X119160580Y-98586004D01*
X119160580Y-98591204D01*
X119161434Y-98596333D01*
X119161434Y-98596336D01*
X119163749Y-98610245D01*
X119164586Y-98616123D01*
X119170610Y-98667021D01*
X119174573Y-98675273D01*
X119176076Y-98684306D01*
X119181023Y-98693475D01*
X119181024Y-98693477D01*
X119194329Y-98718135D01*
X119199188Y-98727139D01*
X119200414Y-98729412D01*
X119203111Y-98734705D01*
X119221865Y-98773762D01*
X119221868Y-98773766D01*
X119225299Y-98780912D01*
X119228894Y-98785188D01*
X119230817Y-98787111D01*
X119232589Y-98789043D01*
X119232632Y-98789122D01*
X119232508Y-98789235D01*
X119232984Y-98789775D01*
X119236070Y-98795494D01*
X119243715Y-98802561D01*
X119275666Y-98832096D01*
X119279232Y-98835526D01*
X119931242Y-99487536D01*
X119946384Y-99506284D01*
X119947499Y-99507509D01*
X119953149Y-99516260D01*
X119961327Y-99522707D01*
X119961329Y-99522709D01*
X119979520Y-99537049D01*
X119983961Y-99540995D01*
X119984023Y-99540922D01*
X119987987Y-99544281D01*
X119991664Y-99547958D01*
X120007412Y-99559212D01*
X120012082Y-99562718D01*
X120052367Y-99594476D01*
X120061001Y-99597508D01*
X120068454Y-99602834D01*
X120117570Y-99617523D01*
X120123212Y-99619356D01*
X120163919Y-99633651D01*
X120171571Y-99636338D01*
X120177136Y-99636820D01*
X120179844Y-99636820D01*
X120182478Y-99636934D01*
X120182576Y-99636963D01*
X120182569Y-99637127D01*
X120183273Y-99637171D01*
X120189498Y-99639033D01*
X120243355Y-99636917D01*
X120248302Y-99636820D01*
X126275560Y-99636820D01*
X126299508Y-99639369D01*
X126301173Y-99639448D01*
X126311356Y-99641640D01*
X126321697Y-99640416D01*
X126344703Y-99637693D01*
X126350634Y-99637343D01*
X126350626Y-99637248D01*
X126355804Y-99636820D01*
X126361004Y-99636820D01*
X126366133Y-99635966D01*
X126366136Y-99635966D01*
X126380045Y-99633651D01*
X126385923Y-99632814D01*
X126426481Y-99628014D01*
X126426482Y-99628014D01*
X126436821Y-99626790D01*
X126445073Y-99622827D01*
X126454106Y-99621324D01*
X126463275Y-99616377D01*
X126463277Y-99616376D01*
X126499212Y-99596986D01*
X126504505Y-99594289D01*
X126543562Y-99575535D01*
X126543566Y-99575532D01*
X126550712Y-99572101D01*
X126554988Y-99568506D01*
X126556911Y-99566583D01*
X126558843Y-99564811D01*
X126558922Y-99564768D01*
X126559035Y-99564892D01*
X126559575Y-99564416D01*
X126565294Y-99561330D01*
X126601897Y-99521733D01*
X126605326Y-99518168D01*
X126899289Y-99224205D01*
X126961601Y-99190179D01*
X126988384Y-99187300D01*
X127751756Y-99187300D01*
X127755153Y-99186931D01*
X127805597Y-99181451D01*
X127805598Y-99181451D01*
X127813448Y-99180598D01*
X127820841Y-99177826D01*
X127820843Y-99177826D01*
X127859046Y-99163504D01*
X127948764Y-99129871D01*
X127955943Y-99124491D01*
X127955946Y-99124489D01*
X128057224Y-99048585D01*
X128064404Y-99043204D01*
X128079713Y-99022777D01*
X128145689Y-98934746D01*
X128145691Y-98934743D01*
X128151071Y-98927564D01*
X128201798Y-98792248D01*
X128208500Y-98730556D01*
X128208500Y-97935044D01*
X128201798Y-97873352D01*
X128151071Y-97738036D01*
X128145691Y-97730857D01*
X128145689Y-97730854D01*
X128069785Y-97629576D01*
X128064404Y-97622396D01*
X127962469Y-97546000D01*
X127955946Y-97541111D01*
X127955943Y-97541109D01*
X127948764Y-97535729D01*
X127859046Y-97502096D01*
X127820843Y-97487774D01*
X127820841Y-97487774D01*
X127813448Y-97485002D01*
X127805598Y-97484149D01*
X127805597Y-97484149D01*
X127755153Y-97478669D01*
X127755152Y-97478669D01*
X127751756Y-97478300D01*
X126756244Y-97478300D01*
X126752848Y-97478669D01*
X126752847Y-97478669D01*
X126702403Y-97484149D01*
X126702402Y-97484149D01*
X126694552Y-97485002D01*
X126687159Y-97487774D01*
X126687157Y-97487774D01*
X126648954Y-97502096D01*
X126559236Y-97535729D01*
X126552057Y-97541109D01*
X126552054Y-97541111D01*
X126545531Y-97546000D01*
X126443596Y-97622396D01*
X126438215Y-97629576D01*
X126362311Y-97730854D01*
X126362309Y-97730857D01*
X126356929Y-97738036D01*
X126306202Y-97873352D01*
X126299500Y-97935044D01*
X126299500Y-98698416D01*
X126279498Y-98766537D01*
X126262595Y-98787511D01*
X126209191Y-98840915D01*
X126146879Y-98874941D01*
X126120096Y-98877820D01*
X125843731Y-98877820D01*
X125775610Y-98857818D01*
X125729117Y-98804162D01*
X125718468Y-98738210D01*
X125719300Y-98730556D01*
X125719300Y-97935044D01*
X125712598Y-97873352D01*
X125661871Y-97738036D01*
X125656491Y-97730857D01*
X125656489Y-97730854D01*
X125580585Y-97629576D01*
X125575204Y-97622396D01*
X125473269Y-97546000D01*
X125466746Y-97541111D01*
X125466743Y-97541109D01*
X125459564Y-97535729D01*
X125369846Y-97502096D01*
X125331643Y-97487774D01*
X125331641Y-97487774D01*
X125324248Y-97485002D01*
X125316398Y-97484149D01*
X125316397Y-97484149D01*
X125265953Y-97478669D01*
X125265952Y-97478669D01*
X125262556Y-97478300D01*
X124267044Y-97478300D01*
X124263648Y-97478669D01*
X124263647Y-97478669D01*
X124213203Y-97484149D01*
X124213202Y-97484149D01*
X124205352Y-97485002D01*
X124197959Y-97487774D01*
X124197957Y-97487774D01*
X124159754Y-97502096D01*
X124070036Y-97535729D01*
X124062857Y-97541109D01*
X124062854Y-97541111D01*
X124056331Y-97546000D01*
X123954396Y-97622396D01*
X123949015Y-97629576D01*
X123873111Y-97730854D01*
X123873109Y-97730857D01*
X123867729Y-97738036D01*
X123817002Y-97873352D01*
X123810300Y-97935044D01*
X123810300Y-98289020D01*
X123790298Y-98357141D01*
X123736642Y-98403634D01*
X123684300Y-98415020D01*
X121226000Y-98415020D01*
X121157879Y-98395018D01*
X121111386Y-98341362D01*
X121100000Y-98289020D01*
X121100000Y-97546000D01*
X121120002Y-97477879D01*
X121173658Y-97431386D01*
X121226000Y-97420000D01*
X122767617Y-97420000D01*
X122778642Y-97416763D01*
X122775217Y-97409262D01*
X122666299Y-97298039D01*
X122655440Y-97289182D01*
X122515676Y-97199111D01*
X122503123Y-97192879D01*
X122459198Y-97176892D01*
X122402026Y-97134798D01*
X122376688Y-97068477D01*
X122391229Y-96998985D01*
X122432292Y-96953725D01*
X122452808Y-96940017D01*
X122470017Y-96922808D01*
X122512368Y-96859425D01*
X122519279Y-96842740D01*
X123836464Y-96842740D01*
X123865022Y-96918919D01*
X123873554Y-96934504D01*
X123949372Y-97035667D01*
X123961933Y-97048228D01*
X124063096Y-97124046D01*
X124078682Y-97132578D01*
X124198059Y-97177331D01*
X124213317Y-97180959D01*
X124246789Y-97184595D01*
X124261382Y-97181978D01*
X124264800Y-97169547D01*
X124264800Y-97168435D01*
X125264800Y-97168435D01*
X125268976Y-97182658D01*
X125281707Y-97184714D01*
X125316283Y-97180958D01*
X125331540Y-97177331D01*
X125450918Y-97132578D01*
X125466504Y-97124046D01*
X125567667Y-97048228D01*
X125580228Y-97035667D01*
X125656046Y-96934504D01*
X125664578Y-96918919D01*
X125690502Y-96849764D01*
X125691016Y-96842740D01*
X126325664Y-96842740D01*
X126354222Y-96918919D01*
X126362754Y-96934504D01*
X126438572Y-97035667D01*
X126451133Y-97048228D01*
X126552296Y-97124046D01*
X126567882Y-97132578D01*
X126687259Y-97177331D01*
X126702517Y-97180959D01*
X126735989Y-97184595D01*
X126750582Y-97181978D01*
X126754000Y-97169547D01*
X126754000Y-97168435D01*
X127754000Y-97168435D01*
X127758176Y-97182658D01*
X127770907Y-97184714D01*
X127805483Y-97180958D01*
X127820740Y-97177331D01*
X127940118Y-97132578D01*
X127955704Y-97124046D01*
X128056867Y-97048228D01*
X128069428Y-97035667D01*
X128145246Y-96934504D01*
X128153778Y-96918919D01*
X128179702Y-96849764D01*
X128180732Y-96835698D01*
X128175446Y-96832800D01*
X127772115Y-96832800D01*
X127756876Y-96837275D01*
X127755671Y-96838665D01*
X127754000Y-96846348D01*
X127754000Y-97168435D01*
X126754000Y-97168435D01*
X126754000Y-96850915D01*
X126749525Y-96835676D01*
X126748135Y-96834471D01*
X126740452Y-96832800D01*
X126340053Y-96832800D01*
X126326522Y-96836773D01*
X126325664Y-96842740D01*
X125691016Y-96842740D01*
X125691532Y-96835698D01*
X125686246Y-96832800D01*
X125282915Y-96832800D01*
X125267676Y-96837275D01*
X125266471Y-96838665D01*
X125264800Y-96846348D01*
X125264800Y-97168435D01*
X124264800Y-97168435D01*
X124264800Y-96850915D01*
X124260325Y-96835676D01*
X124258935Y-96834471D01*
X124251252Y-96832800D01*
X123850853Y-96832800D01*
X123837322Y-96836773D01*
X123836464Y-96842740D01*
X122519279Y-96842740D01*
X122521684Y-96836934D01*
X122532793Y-96781085D01*
X122534000Y-96768830D01*
X122534000Y-96768115D01*
X122529525Y-96752876D01*
X122528135Y-96751671D01*
X122520452Y-96750000D01*
X120844116Y-96750000D01*
X120828877Y-96754475D01*
X120827672Y-96755865D01*
X120826001Y-96763548D01*
X120826001Y-96768828D01*
X120827209Y-96781088D01*
X120838315Y-96836931D01*
X120847633Y-96859427D01*
X120889983Y-96922808D01*
X120897417Y-96930242D01*
X120931443Y-96992554D01*
X120926378Y-97063369D01*
X120883831Y-97120205D01*
X120849760Y-97138328D01*
X120707060Y-97188022D01*
X120694428Y-97194074D01*
X120561870Y-97276905D01*
X120493501Y-97296041D01*
X120425639Y-97275176D01*
X120379831Y-97220934D01*
X120369100Y-97170051D01*
X120369100Y-95149784D01*
X120389102Y-95081663D01*
X120406005Y-95060689D01*
X120610405Y-94856289D01*
X120672717Y-94822263D01*
X120743532Y-94827328D01*
X120800368Y-94869875D01*
X120825179Y-94936395D01*
X120825500Y-94945384D01*
X120825501Y-95480886D01*
X120825501Y-95525066D01*
X120840266Y-95599301D01*
X120847161Y-95609621D01*
X120847162Y-95609622D01*
X120877782Y-95655448D01*
X120898997Y-95723201D01*
X120877782Y-95795452D01*
X120847632Y-95840574D01*
X120838316Y-95863066D01*
X120827207Y-95918915D01*
X120826000Y-95931170D01*
X120826000Y-95931885D01*
X120830475Y-95947124D01*
X120831865Y-95948329D01*
X120839548Y-95950000D01*
X122515884Y-95950000D01*
X122533628Y-95944790D01*
X122589140Y-95909115D01*
X122624638Y-95904011D01*
X122912746Y-95904011D01*
X122931696Y-95905444D01*
X122945766Y-95907585D01*
X122945770Y-95907585D01*
X122953000Y-95908685D01*
X122960291Y-95908092D01*
X122960294Y-95908092D01*
X123005359Y-95904426D01*
X123015574Y-95904011D01*
X123023564Y-95904011D01*
X123030813Y-95903166D01*
X123051624Y-95900740D01*
X123055998Y-95900307D01*
X123121060Y-95895015D01*
X123121063Y-95895014D01*
X123128358Y-95894421D01*
X123135320Y-95892166D01*
X123141188Y-95890993D01*
X123146995Y-95889621D01*
X123154265Y-95888773D01*
X123222571Y-95863979D01*
X123226674Y-95862571D01*
X123295733Y-95840199D01*
X123301990Y-95836402D01*
X123307437Y-95833909D01*
X123312765Y-95831241D01*
X123316453Y-95829902D01*
X123838068Y-95829902D01*
X123843354Y-95832800D01*
X124246685Y-95832800D01*
X124261924Y-95828325D01*
X124263129Y-95826935D01*
X124264800Y-95819252D01*
X124264800Y-95814685D01*
X125264800Y-95814685D01*
X125269275Y-95829924D01*
X125270665Y-95831129D01*
X125278348Y-95832800D01*
X125678747Y-95832800D01*
X125688617Y-95829902D01*
X126327268Y-95829902D01*
X126332554Y-95832800D01*
X126735885Y-95832800D01*
X126751124Y-95828325D01*
X126752329Y-95826935D01*
X126754000Y-95819252D01*
X126754000Y-95814685D01*
X127754000Y-95814685D01*
X127758475Y-95829924D01*
X127759865Y-95831129D01*
X127767548Y-95832800D01*
X128167947Y-95832800D01*
X128181478Y-95828827D01*
X128182336Y-95822860D01*
X128153778Y-95746681D01*
X128145246Y-95731096D01*
X128069428Y-95629933D01*
X128056867Y-95617372D01*
X127955704Y-95541554D01*
X127940118Y-95533022D01*
X127820741Y-95488269D01*
X127805483Y-95484641D01*
X127772011Y-95481005D01*
X127757418Y-95483622D01*
X127754000Y-95496053D01*
X127754000Y-95814685D01*
X126754000Y-95814685D01*
X126754000Y-95497165D01*
X126749824Y-95482942D01*
X126737093Y-95480886D01*
X126702517Y-95484642D01*
X126687260Y-95488269D01*
X126567882Y-95533022D01*
X126552296Y-95541554D01*
X126451133Y-95617372D01*
X126438572Y-95629933D01*
X126362754Y-95731096D01*
X126354222Y-95746681D01*
X126328298Y-95815836D01*
X126327268Y-95829902D01*
X125688617Y-95829902D01*
X125692278Y-95828827D01*
X125693136Y-95822860D01*
X125664578Y-95746681D01*
X125656046Y-95731096D01*
X125580228Y-95629933D01*
X125567667Y-95617372D01*
X125466504Y-95541554D01*
X125450918Y-95533022D01*
X125331541Y-95488269D01*
X125316283Y-95484641D01*
X125282811Y-95481005D01*
X125268218Y-95483622D01*
X125264800Y-95496053D01*
X125264800Y-95814685D01*
X124264800Y-95814685D01*
X124264800Y-95497165D01*
X124260624Y-95482942D01*
X124247893Y-95480886D01*
X124213317Y-95484642D01*
X124198060Y-95488269D01*
X124078682Y-95533022D01*
X124063096Y-95541554D01*
X123961933Y-95617372D01*
X123949372Y-95629933D01*
X123873554Y-95731096D01*
X123865022Y-95746681D01*
X123839098Y-95815836D01*
X123838068Y-95829902D01*
X123316453Y-95829902D01*
X123319645Y-95828743D01*
X123380360Y-95788937D01*
X123384070Y-95786596D01*
X123441349Y-95751838D01*
X123441351Y-95751836D01*
X123446144Y-95748928D01*
X123454485Y-95741562D01*
X123454507Y-95741587D01*
X123457552Y-95738887D01*
X123460657Y-95736291D01*
X123466779Y-95732277D01*
X123519727Y-95676384D01*
X123522104Y-95673943D01*
X124046263Y-95149784D01*
X124647841Y-94548205D01*
X124710153Y-94514180D01*
X124736936Y-94511300D01*
X126999563Y-94511300D01*
X127067684Y-94531302D01*
X127114177Y-94584958D01*
X127117544Y-94593069D01*
X127117577Y-94593158D01*
X127117579Y-94593162D01*
X127120729Y-94601564D01*
X127126109Y-94608743D01*
X127126111Y-94608746D01*
X127150059Y-94640699D01*
X127207396Y-94717204D01*
X127214576Y-94722585D01*
X127315854Y-94798489D01*
X127315857Y-94798491D01*
X127323036Y-94803871D01*
X127412754Y-94837504D01*
X127450957Y-94851826D01*
X127450959Y-94851826D01*
X127458352Y-94854598D01*
X127466202Y-94855451D01*
X127466203Y-94855451D01*
X127516647Y-94860931D01*
X127520044Y-94861300D01*
X129115556Y-94861300D01*
X129118953Y-94860931D01*
X129169397Y-94855451D01*
X129169398Y-94855451D01*
X129177248Y-94854598D01*
X129184641Y-94851826D01*
X129184643Y-94851826D01*
X129222846Y-94837504D01*
X129312564Y-94803871D01*
X129319743Y-94798491D01*
X129319746Y-94798489D01*
X129421024Y-94722585D01*
X129428204Y-94717204D01*
X129485541Y-94640699D01*
X129509489Y-94608746D01*
X129509491Y-94608743D01*
X129514871Y-94601564D01*
X129565598Y-94466248D01*
X129572300Y-94404556D01*
X129572300Y-93109044D01*
X129565598Y-93047352D01*
X129514871Y-92912036D01*
X129509491Y-92904857D01*
X129509489Y-92904854D01*
X129433585Y-92803576D01*
X129428204Y-92796396D01*
X129383701Y-92763043D01*
X129319746Y-92715111D01*
X129319743Y-92715109D01*
X129312564Y-92709729D01*
X129222846Y-92676096D01*
X129184643Y-92661774D01*
X129184641Y-92661774D01*
X129177248Y-92659002D01*
X129169398Y-92658149D01*
X129169397Y-92658149D01*
X129118953Y-92652669D01*
X129118952Y-92652669D01*
X129115556Y-92652300D01*
X128491162Y-92652300D01*
X128423041Y-92632298D01*
X128402067Y-92615395D01*
X128362567Y-92575895D01*
X128328541Y-92513583D01*
X128333606Y-92442768D01*
X128376153Y-92385932D01*
X128442673Y-92361121D01*
X128451662Y-92360800D01*
X128517444Y-92360800D01*
X128523421Y-92360515D01*
X128671534Y-92346384D01*
X128683272Y-92344124D01*
X128873891Y-92288202D01*
X128884994Y-92283761D01*
X129061607Y-92192800D01*
X129071653Y-92186350D01*
X129227886Y-92063629D01*
X129236535Y-92055392D01*
X129366744Y-91905338D01*
X129373673Y-91895625D01*
X129444915Y-91772480D01*
X129448251Y-91758780D01*
X129446977Y-91757775D01*
X129441928Y-91756800D01*
X127200485Y-91756800D01*
X127186954Y-91760773D01*
X127186287Y-91765415D01*
X127203912Y-91804179D01*
X127209859Y-91814521D01*
X127324810Y-91976572D01*
X127332603Y-91985600D01*
X127339791Y-91992481D01*
X127375168Y-92054036D01*
X127371649Y-92124946D01*
X127330353Y-92182696D01*
X127264390Y-92208953D01*
X127252661Y-92209500D01*
X124875514Y-92209500D01*
X124807393Y-92189498D01*
X124786419Y-92172595D01*
X124178013Y-91564189D01*
X124165626Y-91549776D01*
X124157193Y-91538317D01*
X124152852Y-91532418D01*
X124112810Y-91498400D01*
X124105294Y-91491470D01*
X124099651Y-91485827D01*
X124077491Y-91468295D01*
X124074105Y-91465519D01*
X124024347Y-91423246D01*
X124024348Y-91423246D01*
X124018769Y-91418507D01*
X124012249Y-91415178D01*
X124007271Y-91411858D01*
X124002198Y-91408725D01*
X123996456Y-91404182D01*
X123930672Y-91373436D01*
X123926722Y-91371505D01*
X123868596Y-91341825D01*
X123862077Y-91338496D01*
X123854967Y-91336756D01*
X123849347Y-91334666D01*
X123843696Y-91332786D01*
X123837067Y-91329688D01*
X123829903Y-91328198D01*
X123829900Y-91328197D01*
X123789794Y-91319856D01*
X123765975Y-91314902D01*
X123761716Y-91313938D01*
X123691181Y-91296678D01*
X123685584Y-91296331D01*
X123685579Y-91296330D01*
X123680075Y-91295989D01*
X123680077Y-91295955D01*
X123676018Y-91295712D01*
X123671984Y-91295352D01*
X123664816Y-91293861D01*
X123657499Y-91294059D01*
X123587874Y-91295943D01*
X123584466Y-91295989D01*
X122626276Y-91295989D01*
X122558155Y-91275987D01*
X122543764Y-91265213D01*
X122528136Y-91251672D01*
X122520452Y-91250000D01*
X120844116Y-91250000D01*
X120828877Y-91254475D01*
X120827672Y-91255865D01*
X120826001Y-91263548D01*
X120826001Y-91268828D01*
X120827209Y-91281088D01*
X120838315Y-91336931D01*
X120847633Y-91359427D01*
X120877782Y-91404548D01*
X120898997Y-91472301D01*
X120877782Y-91544552D01*
X120847161Y-91590379D01*
X120847160Y-91590382D01*
X120840266Y-91600699D01*
X120825500Y-91674933D01*
X120825501Y-92485066D01*
X120840266Y-92559301D01*
X120841886Y-92561725D01*
X120848769Y-92625777D01*
X120816987Y-92689263D01*
X120755928Y-92725488D01*
X120739582Y-92728528D01*
X120732998Y-92729307D01*
X120732996Y-92729307D01*
X120722659Y-92730531D01*
X120714410Y-92734492D01*
X120705374Y-92735996D01*
X120696205Y-92740943D01*
X120696203Y-92740944D01*
X120660240Y-92760348D01*
X120654951Y-92763043D01*
X120615915Y-92781788D01*
X120608768Y-92785220D01*
X120604492Y-92788814D01*
X120602552Y-92790754D01*
X120600641Y-92792507D01*
X120600551Y-92792556D01*
X120600439Y-92792433D01*
X120599904Y-92792905D01*
X120594186Y-92795990D01*
X120587119Y-92803635D01*
X120557584Y-92835586D01*
X120554154Y-92839152D01*
X119309864Y-94083442D01*
X119291116Y-94098584D01*
X119289891Y-94099699D01*
X119281140Y-94105349D01*
X119274693Y-94113527D01*
X119274691Y-94113529D01*
X119260351Y-94131720D01*
X119256405Y-94136161D01*
X119256478Y-94136223D01*
X119253119Y-94140187D01*
X119249442Y-94143864D01*
X119238188Y-94159612D01*
X119234682Y-94164282D01*
X119202924Y-94204567D01*
X119199892Y-94213201D01*
X119194566Y-94220654D01*
X119191581Y-94230635D01*
X119179879Y-94269764D01*
X119178044Y-94275412D01*
X119161062Y-94323771D01*
X119160580Y-94329336D01*
X119160580Y-94332044D01*
X119160466Y-94334678D01*
X119160437Y-94334776D01*
X119160273Y-94334769D01*
X119160229Y-94335473D01*
X119158367Y-94341698D01*
X119158776Y-94352103D01*
X119160483Y-94395555D01*
X119160580Y-94400502D01*
X119160580Y-97289795D01*
X119140578Y-97357916D01*
X119086922Y-97404409D01*
X119016648Y-97414513D01*
X118952068Y-97385019D01*
X118944556Y-97377952D01*
X118866299Y-97298039D01*
X118855440Y-97289182D01*
X118715676Y-97199111D01*
X118703123Y-97192879D01*
X118546873Y-97136009D01*
X118533258Y-97132716D01*
X118404870Y-97116497D01*
X118396980Y-97116000D01*
X118318115Y-97116000D01*
X118302876Y-97120475D01*
X118301671Y-97121865D01*
X118300000Y-97129548D01*
X118300000Y-98705885D01*
X117300000Y-98705885D01*
X117300000Y-98438115D01*
X117295525Y-98422876D01*
X117294135Y-98421671D01*
X117286452Y-98420000D01*
X116632383Y-98420000D01*
X116621358Y-98423237D01*
X116134000Y-98423237D01*
X116134000Y-97418257D01*
X116620831Y-97418257D01*
X116621021Y-97418420D01*
X116628386Y-97420000D01*
X117281885Y-97420000D01*
X117297124Y-97415525D01*
X117298329Y-97414135D01*
X117300000Y-97406452D01*
X117300000Y-97134115D01*
X117295525Y-97118876D01*
X117294135Y-97117671D01*
X117286452Y-97116000D01*
X117208172Y-97116000D01*
X117201148Y-97116393D01*
X117077747Y-97130234D01*
X117064094Y-97133336D01*
X116907062Y-97188021D01*
X116894429Y-97194074D01*
X116753411Y-97282191D01*
X116742439Y-97290888D01*
X116624445Y-97408061D01*
X116623382Y-97409382D01*
X116620831Y-97418257D01*
X116134000Y-97418257D01*
X116134000Y-90754820D01*
X127187349Y-90754820D01*
X127188623Y-90755825D01*
X127193672Y-90756800D01*
X127799685Y-90756800D01*
X127814924Y-90752325D01*
X127816129Y-90750935D01*
X127817800Y-90743252D01*
X127817800Y-90738685D01*
X128817800Y-90738685D01*
X128822275Y-90753924D01*
X128823665Y-90755129D01*
X128831348Y-90756800D01*
X129435115Y-90756800D01*
X129448646Y-90752827D01*
X129449313Y-90748185D01*
X129431688Y-90709421D01*
X129425741Y-90699079D01*
X129310790Y-90537028D01*
X129302997Y-90528000D01*
X129159479Y-90390611D01*
X129150114Y-90383215D01*
X128983208Y-90275445D01*
X128972612Y-90269952D01*
X128834603Y-90214334D01*
X128820568Y-90212961D01*
X128817800Y-90217729D01*
X128817800Y-90738685D01*
X127817800Y-90738685D01*
X127817800Y-90227058D01*
X127813827Y-90213527D01*
X127806006Y-90212403D01*
X127761693Y-90225403D01*
X127750617Y-90229833D01*
X127573993Y-90320800D01*
X127563947Y-90327250D01*
X127407714Y-90449971D01*
X127399065Y-90458208D01*
X127268856Y-90608262D01*
X127261927Y-90617975D01*
X127190685Y-90741120D01*
X127187349Y-90754820D01*
X116134000Y-90754820D01*
X116134000Y-89783237D01*
X116621358Y-89783237D01*
X116624783Y-89790738D01*
X116733701Y-89901961D01*
X116744560Y-89910818D01*
X116884324Y-90000889D01*
X116896877Y-90007121D01*
X117053127Y-90063991D01*
X117066742Y-90067284D01*
X117195130Y-90083503D01*
X117203020Y-90084000D01*
X117281885Y-90084000D01*
X117297124Y-90079525D01*
X117298329Y-90078135D01*
X117300000Y-90070452D01*
X117300000Y-90065885D01*
X118300000Y-90065885D01*
X118304475Y-90081124D01*
X118305865Y-90082329D01*
X118313548Y-90084000D01*
X118391828Y-90084000D01*
X118398852Y-90083607D01*
X118522253Y-90069766D01*
X118535906Y-90066664D01*
X118692938Y-90011979D01*
X118705571Y-90005926D01*
X118846589Y-89917809D01*
X118857561Y-89909112D01*
X118975555Y-89791939D01*
X118976618Y-89790618D01*
X118978740Y-89783237D01*
X120421358Y-89783237D01*
X120424783Y-89790738D01*
X120533701Y-89901961D01*
X120544560Y-89910818D01*
X120684324Y-90000889D01*
X120696877Y-90007121D01*
X120850605Y-90063073D01*
X120907777Y-90105167D01*
X120933115Y-90171488D01*
X120918574Y-90240980D01*
X120896606Y-90270569D01*
X120889983Y-90277192D01*
X120847632Y-90340575D01*
X120838316Y-90363066D01*
X120827207Y-90418915D01*
X120826000Y-90431170D01*
X120826000Y-90431885D01*
X120830475Y-90447124D01*
X120831865Y-90448329D01*
X120839548Y-90450000D01*
X122515884Y-90450000D01*
X122531123Y-90445525D01*
X122532328Y-90444135D01*
X122533999Y-90436452D01*
X122533999Y-90431172D01*
X122532791Y-90418912D01*
X122521685Y-90363069D01*
X122512367Y-90340573D01*
X122470017Y-90277192D01*
X122452810Y-90259985D01*
X122432913Y-90246690D01*
X122387386Y-90192212D01*
X122378539Y-90121769D01*
X122409180Y-90057725D01*
X122461480Y-90022933D01*
X122492943Y-90011977D01*
X122505571Y-90005926D01*
X122646589Y-89917809D01*
X122657561Y-89909112D01*
X122775555Y-89791939D01*
X122776618Y-89790618D01*
X122779169Y-89781743D01*
X122778979Y-89781580D01*
X122771614Y-89780000D01*
X120432383Y-89780000D01*
X120421358Y-89783237D01*
X118978740Y-89783237D01*
X118979169Y-89781743D01*
X118978979Y-89781580D01*
X118971614Y-89780000D01*
X118318115Y-89780000D01*
X118302876Y-89784475D01*
X118301671Y-89785865D01*
X118300000Y-89793548D01*
X118300000Y-90065885D01*
X117300000Y-90065885D01*
X117300000Y-89798115D01*
X117295525Y-89782876D01*
X117294135Y-89781671D01*
X117286452Y-89780000D01*
X116632383Y-89780000D01*
X116621358Y-89783237D01*
X116134000Y-89783237D01*
X116134000Y-88778257D01*
X116620831Y-88778257D01*
X116621021Y-88778420D01*
X116628386Y-88780000D01*
X117281885Y-88780000D01*
X117297124Y-88775525D01*
X117298329Y-88774135D01*
X117300000Y-88766452D01*
X117300000Y-88761885D01*
X118300000Y-88761885D01*
X118304475Y-88777124D01*
X118305865Y-88778329D01*
X118313548Y-88780000D01*
X118967617Y-88780000D01*
X118973554Y-88778257D01*
X120420831Y-88778257D01*
X120421021Y-88778420D01*
X120428386Y-88780000D01*
X121081885Y-88780000D01*
X121097124Y-88775525D01*
X121098329Y-88774135D01*
X121100000Y-88766452D01*
X121100000Y-88761885D01*
X122100000Y-88761885D01*
X122104475Y-88777124D01*
X122105865Y-88778329D01*
X122113548Y-88780000D01*
X122767617Y-88780000D01*
X122778642Y-88776763D01*
X122775217Y-88769262D01*
X122666299Y-88658039D01*
X122655440Y-88649182D01*
X122515676Y-88559111D01*
X122503123Y-88552879D01*
X122346873Y-88496009D01*
X122333258Y-88492716D01*
X122204870Y-88476497D01*
X122196980Y-88476000D01*
X122118115Y-88476000D01*
X122102876Y-88480475D01*
X122101671Y-88481865D01*
X122100000Y-88489548D01*
X122100000Y-88761885D01*
X121100000Y-88761885D01*
X121100000Y-88494115D01*
X121095525Y-88478876D01*
X121094135Y-88477671D01*
X121086452Y-88476000D01*
X121008172Y-88476000D01*
X121001148Y-88476393D01*
X120877747Y-88490234D01*
X120864094Y-88493336D01*
X120707062Y-88548021D01*
X120694429Y-88554074D01*
X120553411Y-88642191D01*
X120542439Y-88650888D01*
X120424445Y-88768061D01*
X120423382Y-88769382D01*
X120420831Y-88778257D01*
X118973554Y-88778257D01*
X118978642Y-88776763D01*
X118975217Y-88769262D01*
X118866299Y-88658039D01*
X118855440Y-88649182D01*
X118715676Y-88559111D01*
X118703123Y-88552879D01*
X118546873Y-88496009D01*
X118533258Y-88492716D01*
X118404870Y-88476497D01*
X118396980Y-88476000D01*
X118318115Y-88476000D01*
X118302876Y-88480475D01*
X118301671Y-88481865D01*
X118300000Y-88489548D01*
X118300000Y-88761885D01*
X117300000Y-88761885D01*
X117300000Y-88494115D01*
X117295525Y-88478876D01*
X117294135Y-88477671D01*
X117286452Y-88476000D01*
X117208172Y-88476000D01*
X117201148Y-88476393D01*
X117077747Y-88490234D01*
X117064094Y-88493336D01*
X116907062Y-88548021D01*
X116894429Y-88554074D01*
X116753411Y-88642191D01*
X116742439Y-88650888D01*
X116624445Y-88768061D01*
X116623382Y-88769382D01*
X116620831Y-88778257D01*
X116134000Y-88778257D01*
X116134000Y-87603600D01*
X116154002Y-87535479D01*
X116207658Y-87488986D01*
X116260000Y-87477600D01*
X132120000Y-87477600D01*
X132188121Y-87497602D01*
G37*
G04 #@! TD.AperFunction*
M02*
