G04 #@! TF.GenerationSoftware,KiCad,Pcbnew,(6.0.0)*
G04 #@! TF.CreationDate,2023-03-30T02:39:52-04:00*
G04 #@! TF.ProjectId,stroboscope_main_0v1,7374726f-626f-4736-936f-70655f6d6169,rev?*
G04 #@! TF.SameCoordinates,Original*
G04 #@! TF.FileFunction,Soldermask,Bot*
G04 #@! TF.FilePolarity,Negative*
%FSLAX46Y46*%
G04 Gerber Fmt 4.6, Leading zero omitted, Abs format (unit mm)*
G04 Created by KiCad (PCBNEW (6.0.0)) date 2023-03-30 02:39:52*
%MOMM*%
%LPD*%
G01*
G04 APERTURE LIST*
G04 Aperture macros list*
%AMRoundRect*
0 Rectangle with rounded corners*
0 $1 Rounding radius*
0 $2 $3 $4 $5 $6 $7 $8 $9 X,Y pos of 4 corners*
0 Add a 4 corners polygon primitive as box body*
4,1,4,$2,$3,$4,$5,$6,$7,$8,$9,$2,$3,0*
0 Add four circle primitives for the rounded corners*
1,1,$1+$1,$2,$3*
1,1,$1+$1,$4,$5*
1,1,$1+$1,$6,$7*
1,1,$1+$1,$8,$9*
0 Add four rect primitives between the rounded corners*
20,1,$1+$1,$2,$3,$4,$5,0*
20,1,$1+$1,$4,$5,$6,$7,0*
20,1,$1+$1,$6,$7,$8,$9,0*
20,1,$1+$1,$8,$9,$2,$3,0*%
G04 Aperture macros list end*
%ADD10RoundRect,0.150000X0.150000X-0.825000X0.150000X0.825000X-0.150000X0.825000X-0.150000X-0.825000X0*%
%ADD11R,1.600000X1.600000*%
%ADD12C,1.600000*%
%ADD13R,1.700000X1.700000*%
%ADD14O,1.700000X1.700000*%
%ADD15C,2.200000*%
%ADD16C,1.950000*%
%ADD17R,1.900000X1.900000*%
%ADD18C,1.900000*%
%ADD19R,1.525000X0.650000*%
%ADD20RoundRect,0.090000X0.895000X0.210000X-0.895000X0.210000X-0.895000X-0.210000X0.895000X-0.210000X0*%
%ADD21RoundRect,0.250000X-0.600000X-0.750000X0.600000X-0.750000X0.600000X0.750000X-0.600000X0.750000X0*%
%ADD22O,1.700000X2.000000*%
%ADD23RoundRect,0.250000X-0.600000X-0.725000X0.600000X-0.725000X0.600000X0.725000X-0.600000X0.725000X0*%
%ADD24O,1.700000X1.950000*%
%ADD25RoundRect,0.250000X-0.750000X0.600000X-0.750000X-0.600000X0.750000X-0.600000X0.750000X0.600000X0*%
%ADD26O,2.000000X1.700000*%
%ADD27RoundRect,0.250000X0.750000X-0.600000X0.750000X0.600000X-0.750000X0.600000X-0.750000X-0.600000X0*%
%ADD28O,1.800000X1.800000*%
%ADD29O,1.500000X1.500000*%
%ADD30R,1.700000X3.500000*%
%ADD31R,3.500000X1.700000*%
G04 APERTURE END LIST*
D10*
X129438400Y-116114600D03*
X128168400Y-116114600D03*
X126898400Y-116114600D03*
X125628400Y-116114600D03*
X124358400Y-116114600D03*
X123088400Y-116114600D03*
X121818400Y-116114600D03*
X121818400Y-111164600D03*
X123088400Y-111164600D03*
X124358400Y-111164600D03*
X125628400Y-111164600D03*
X126898400Y-111164600D03*
X128168400Y-111164600D03*
X129438400Y-111164600D03*
D11*
X138125200Y-83058000D03*
D12*
X140625200Y-83058000D03*
D11*
X140512800Y-98704400D03*
D12*
X138012800Y-98704400D03*
D13*
X86360000Y-95631000D03*
D14*
X83820000Y-95631000D03*
D15*
X146894051Y-113583949D03*
D16*
X125563000Y-75798500D03*
X125563000Y-88298500D03*
X120563000Y-75798500D03*
X120563000Y-88298500D03*
D15*
X87599051Y-113583949D03*
X87599051Y-70783949D03*
D17*
X100043000Y-103632000D03*
D18*
X97543000Y-103632000D03*
X95043000Y-103632000D03*
D13*
X83185000Y-76708000D03*
D14*
X85725000Y-76708000D03*
X88265000Y-76708000D03*
X90805000Y-76708000D03*
X93345000Y-76708000D03*
D15*
X146894051Y-70783949D03*
D16*
X125563000Y-96098000D03*
X125563000Y-108598000D03*
X120563000Y-96098000D03*
X120563000Y-108598000D03*
D19*
X140888000Y-68021200D03*
X140888000Y-69291200D03*
X140888000Y-70561200D03*
X140888000Y-71831200D03*
X140888000Y-73101200D03*
X140888000Y-74371200D03*
X140888000Y-75641200D03*
X135464000Y-75641200D03*
X135464000Y-74371200D03*
X135464000Y-73101200D03*
X135464000Y-71831200D03*
X135464000Y-70561200D03*
X135464000Y-69291200D03*
X135464000Y-68021200D03*
D20*
X148423400Y-86817200D03*
X148423400Y-88087200D03*
X148423400Y-89357200D03*
X148423400Y-90627200D03*
X148423400Y-91897200D03*
X148423400Y-93167200D03*
X148423400Y-94437200D03*
X143473400Y-94437200D03*
X143473400Y-93167200D03*
X143473400Y-91897200D03*
X143473400Y-90627200D03*
X143473400Y-89357200D03*
X143473400Y-88087200D03*
X143473400Y-86817200D03*
D21*
X84963000Y-105664000D03*
D22*
X87463000Y-105664000D03*
D11*
X115874800Y-103530400D03*
D12*
X115874800Y-106030400D03*
D23*
X121285000Y-71374000D03*
D24*
X123785000Y-71374000D03*
X126285000Y-71374000D03*
X128785000Y-71374000D03*
D25*
X146812000Y-100751000D03*
D26*
X146812000Y-103251000D03*
D27*
X147718000Y-80244000D03*
D26*
X147718000Y-77744000D03*
D19*
X135718000Y-112141000D03*
X135718000Y-110871000D03*
X135718000Y-109601000D03*
X135718000Y-108331000D03*
X135718000Y-107061000D03*
X135718000Y-105791000D03*
X135718000Y-104521000D03*
X141142000Y-104521000D03*
X141142000Y-105791000D03*
X141142000Y-107061000D03*
X141142000Y-108331000D03*
X141142000Y-109601000D03*
X141142000Y-110871000D03*
X141142000Y-112141000D03*
D28*
X83291000Y-92514000D03*
X83291000Y-87064000D03*
D29*
X86321000Y-87364000D03*
X86321000Y-92214000D03*
D14*
X83161000Y-80899000D03*
D30*
X83161000Y-79999000D03*
D14*
X85701000Y-80899000D03*
D30*
X85701000Y-79999000D03*
X88241000Y-79999000D03*
D13*
X88241000Y-80899000D03*
D14*
X90781000Y-80899000D03*
D30*
X90781000Y-79999000D03*
D14*
X93321000Y-80899000D03*
D30*
X93321000Y-79999000D03*
D14*
X95861000Y-80899000D03*
D30*
X95861000Y-79999000D03*
X98401000Y-79999000D03*
D14*
X98401000Y-80899000D03*
D13*
X100941000Y-80899000D03*
D30*
X100941000Y-79999000D03*
X103481000Y-79999000D03*
D14*
X103481000Y-80899000D03*
X106021000Y-80899000D03*
D30*
X106021000Y-79999000D03*
X108561000Y-79999000D03*
D14*
X108561000Y-80899000D03*
X111101000Y-80899000D03*
D30*
X111101000Y-79999000D03*
D13*
X113641000Y-80899000D03*
D30*
X113641000Y-79999000D03*
X116181000Y-79999000D03*
D14*
X116181000Y-80899000D03*
X118721000Y-80899000D03*
D30*
X118721000Y-79999000D03*
X121261000Y-79999000D03*
D14*
X121261000Y-80899000D03*
D30*
X123801000Y-79999000D03*
D14*
X123801000Y-80899000D03*
D30*
X126341000Y-79999000D03*
D13*
X126341000Y-80899000D03*
D14*
X128881000Y-80899000D03*
D30*
X128881000Y-79999000D03*
X131421000Y-79999000D03*
D14*
X131421000Y-80899000D03*
D30*
X131421000Y-99579000D03*
D14*
X131421000Y-98679000D03*
D30*
X128881000Y-99579000D03*
D14*
X128881000Y-98679000D03*
D30*
X126341000Y-99579000D03*
D13*
X126341000Y-98679000D03*
D14*
X123801000Y-98679000D03*
D30*
X123801000Y-99579000D03*
X121261000Y-99579000D03*
D14*
X121261000Y-98679000D03*
D30*
X118721000Y-99579000D03*
D14*
X118721000Y-98679000D03*
X116181000Y-98679000D03*
D30*
X116181000Y-99579000D03*
D13*
X113641000Y-98679000D03*
D30*
X113641000Y-99579000D03*
D14*
X111101000Y-98679000D03*
D30*
X111101000Y-99579000D03*
X108561000Y-99579000D03*
D14*
X108561000Y-98679000D03*
X106021000Y-98679000D03*
D30*
X106021000Y-99579000D03*
D14*
X103481000Y-98679000D03*
D30*
X103481000Y-99579000D03*
X100941000Y-99579000D03*
D13*
X100941000Y-98679000D03*
D30*
X98401000Y-99579000D03*
D14*
X98401000Y-98679000D03*
D30*
X95861000Y-99579000D03*
D14*
X95861000Y-98679000D03*
X93321000Y-98679000D03*
D30*
X93321000Y-99579000D03*
X90781000Y-99579000D03*
D14*
X90781000Y-98679000D03*
D30*
X88241000Y-99579000D03*
D13*
X88241000Y-98679000D03*
D30*
X85701000Y-99579000D03*
D14*
X85701000Y-98679000D03*
X83161000Y-98679000D03*
D30*
X83161000Y-99579000D03*
D31*
X132091000Y-87249000D03*
D14*
X131191000Y-87249000D03*
D13*
X131191000Y-89789000D03*
D31*
X132091000Y-89789000D03*
D14*
X131191000Y-92329000D03*
D31*
X132091000Y-92329000D03*
M02*
