G04 #@! TF.GenerationSoftware,KiCad,Pcbnew,(6.0.0)*
G04 #@! TF.CreationDate,2023-03-30T02:39:52-04:00*
G04 #@! TF.ProjectId,stroboscope_main_0v1,7374726f-626f-4736-936f-70655f6d6169,rev?*
G04 #@! TF.SameCoordinates,Original*
G04 #@! TF.FileFunction,Profile,NP*
%FSLAX46Y46*%
G04 Gerber Fmt 4.6, Leading zero omitted, Abs format (unit mm)*
G04 Created by KiCad (PCBNEW (6.0.0)) date 2023-03-30 02:39:52*
%MOMM*%
%LPD*%
G01*
G04 APERTURE LIST*
G04 #@! TA.AperFunction,Profile*
%ADD10C,0.250000*%
G04 #@! TD*
G04 APERTURE END LIST*
D10*
X115204051Y-111773949D02*
G75*
G03*
X112664051Y-109233949I-2540001J-1D01*
G01*
X94154051Y-69323949D02*
X94154051Y-72593949D01*
X148354051Y-117583949D02*
G75*
G03*
X150894051Y-115043949I-1J2540001D01*
G01*
X81044051Y-69323949D02*
X81044051Y-115043949D01*
X81044051Y-115043949D02*
G75*
G03*
X83584051Y-117583949I2540001J1D01*
G01*
X112664051Y-75133949D02*
X96694051Y-75133949D01*
X94154051Y-69323949D02*
G75*
G03*
X91614051Y-66783949I-2540001J-1D01*
G01*
X115204051Y-69323949D02*
X115204051Y-72593949D01*
X115204051Y-115043949D02*
X115204051Y-111773949D01*
X117744051Y-66783949D02*
G75*
G03*
X115204051Y-69323949I1J-2540001D01*
G01*
X96694051Y-109233949D02*
G75*
G03*
X94154051Y-111773949I1J-2540001D01*
G01*
X115204051Y-115043949D02*
G75*
G03*
X117744051Y-117583949I2540001J1D01*
G01*
X83584051Y-66783949D02*
X91614051Y-66783949D01*
X150894051Y-69323949D02*
X150894051Y-115043949D01*
X83584051Y-117583949D02*
X91614051Y-117583949D01*
X148354051Y-66783949D02*
X117744051Y-66783949D01*
X150894051Y-69323949D02*
G75*
G03*
X148354051Y-66783949I-2540001J-1D01*
G01*
X91614051Y-117583949D02*
G75*
G03*
X94154051Y-115043949I-1J2540001D01*
G01*
X112664051Y-109233949D02*
X96694051Y-109233949D01*
X148354051Y-117583949D02*
X117744051Y-117583949D01*
X94154051Y-72593949D02*
G75*
G03*
X96694051Y-75133949I2540001J1D01*
G01*
X83584051Y-66783949D02*
G75*
G03*
X81044051Y-69323949I1J-2540001D01*
G01*
X94154051Y-115043949D02*
X94154051Y-111773949D01*
X112664051Y-75133949D02*
G75*
G03*
X115204051Y-72593949I-1J2540001D01*
G01*
M02*
