G04 #@! TF.GenerationSoftware,KiCad,Pcbnew,(6.0.0)*
G04 #@! TF.CreationDate,2023-03-30T02:39:52-04:00*
G04 #@! TF.ProjectId,stroboscope_main_0v1,7374726f-626f-4736-936f-70655f6d6169,rev?*
G04 #@! TF.SameCoordinates,Original*
G04 #@! TF.FileFunction,Paste,Bot*
G04 #@! TF.FilePolarity,Positive*
%FSLAX46Y46*%
G04 Gerber Fmt 4.6, Leading zero omitted, Abs format (unit mm)*
G04 Created by KiCad (PCBNEW (6.0.0)) date 2023-03-30 02:39:52*
%MOMM*%
%LPD*%
G01*
G04 APERTURE LIST*
G04 Aperture macros list*
%AMRoundRect*
0 Rectangle with rounded corners*
0 $1 Rounding radius*
0 $2 $3 $4 $5 $6 $7 $8 $9 X,Y pos of 4 corners*
0 Add a 4 corners polygon primitive as box body*
4,1,4,$2,$3,$4,$5,$6,$7,$8,$9,$2,$3,0*
0 Add four circle primitives for the rounded corners*
1,1,$1+$1,$2,$3*
1,1,$1+$1,$4,$5*
1,1,$1+$1,$6,$7*
1,1,$1+$1,$8,$9*
0 Add four rect primitives between the rounded corners*
20,1,$1+$1,$2,$3,$4,$5,0*
20,1,$1+$1,$4,$5,$6,$7,0*
20,1,$1+$1,$6,$7,$8,$9,0*
20,1,$1+$1,$8,$9,$2,$3,0*%
G04 Aperture macros list end*
%ADD10RoundRect,0.150000X0.150000X-0.825000X0.150000X0.825000X-0.150000X0.825000X-0.150000X-0.825000X0*%
%ADD11R,1.525000X0.650000*%
%ADD12RoundRect,0.090000X0.895000X0.210000X-0.895000X0.210000X-0.895000X-0.210000X0.895000X-0.210000X0*%
G04 APERTURE END LIST*
D10*
X129438400Y-116114600D03*
X128168400Y-116114600D03*
X126898400Y-116114600D03*
X125628400Y-116114600D03*
X124358400Y-116114600D03*
X123088400Y-116114600D03*
X121818400Y-116114600D03*
X121818400Y-111164600D03*
X123088400Y-111164600D03*
X124358400Y-111164600D03*
X125628400Y-111164600D03*
X126898400Y-111164600D03*
X128168400Y-111164600D03*
X129438400Y-111164600D03*
D11*
X140888000Y-68021200D03*
X140888000Y-69291200D03*
X140888000Y-70561200D03*
X140888000Y-71831200D03*
X140888000Y-73101200D03*
X140888000Y-74371200D03*
X140888000Y-75641200D03*
X135464000Y-75641200D03*
X135464000Y-74371200D03*
X135464000Y-73101200D03*
X135464000Y-71831200D03*
X135464000Y-70561200D03*
X135464000Y-69291200D03*
X135464000Y-68021200D03*
D12*
X148423400Y-86817200D03*
X148423400Y-88087200D03*
X148423400Y-89357200D03*
X148423400Y-90627200D03*
X148423400Y-91897200D03*
X148423400Y-93167200D03*
X148423400Y-94437200D03*
X143473400Y-94437200D03*
X143473400Y-93167200D03*
X143473400Y-91897200D03*
X143473400Y-90627200D03*
X143473400Y-89357200D03*
X143473400Y-88087200D03*
X143473400Y-86817200D03*
D11*
X135718000Y-112141000D03*
X135718000Y-110871000D03*
X135718000Y-109601000D03*
X135718000Y-108331000D03*
X135718000Y-107061000D03*
X135718000Y-105791000D03*
X135718000Y-104521000D03*
X141142000Y-104521000D03*
X141142000Y-105791000D03*
X141142000Y-107061000D03*
X141142000Y-108331000D03*
X141142000Y-109601000D03*
X141142000Y-110871000D03*
X141142000Y-112141000D03*
M02*
