M48
INCH,TZ
T1C0.0157
T2C0.0315
T3C0.0354
T4C0.0374
T5C0.0394
T6C0.0402
T7C0.0512
%
G90
G05
T1
X49200Y-45140
X50960Y-43020
X51820Y-43800
X52020Y-45580
X52040Y-32740
X52800Y-43920
X54860Y-33540
X54900Y-43750
X56050Y-27650
X57540Y-37880
X57740Y-42640
X58680Y-37860
T2
X45620Y-40760
X45620Y-41744
X54336Y-38860
X54380Y-32700
X55320Y-38860
X55364Y-32700
T3
X37419Y-40800
X38403Y-40800
X39387Y-40800
T4
X47750Y-28100
X48734Y-28100
X49719Y-28100
X50703Y-28100
T5
X32750Y-30200
X33000Y-37650
X33450Y-41600
X33750Y-30200
X34000Y-37650
X34434Y-41600
X34750Y-30200
X35750Y-30200
X36750Y-30200
X57800Y-39666
X57800Y-40650
X58157Y-30608
X58157Y-31592
T6
X32741Y-31850
X32741Y-38850
X33741Y-31850
X33741Y-38850
X34741Y-31850
X34741Y-38850
X35741Y-31850
X35741Y-38850
X36741Y-31850
X36741Y-38850
X37741Y-31850
X37741Y-38850
X38741Y-31850
X38741Y-38850
X39741Y-31850
X39741Y-38850
X40741Y-31850
X40741Y-38850
X41741Y-31850
X41741Y-38850
X42741Y-31850
X42741Y-38850
X43741Y-31850
X43741Y-38850
X44741Y-31850
X44741Y-38850
X45741Y-31850
X45741Y-38850
X46741Y-31850
X46741Y-38850
X47741Y-31850
X47741Y-38850
X48741Y-31850
X48741Y-38850
X49741Y-31850
X49741Y-38850
X50741Y-31850
X50741Y-38850
X51650Y-34350
X51650Y-35350
X51650Y-36350
X51741Y-31850
X51741Y-38850
T7
X47466Y-29842
X47466Y-34763
X47466Y-37834
X47466Y-42755
X49434Y-29842
X49434Y-34763
X49434Y-37834
X49434Y-42755
T0
M30
